<svg width="24" height="27" viewBox="0 0 24 27" fill="none" xmlns="http://www.w3.org/2000/svg">
<path d="M17.3336 2.7C16.2193 3.71777 15.2132 4.78775 14.3218 5.86248C12.8614 3.8823 11.0507 1.87365 9 0C3.73607 4.80779 0 11.0721 0 14.85C0 21.5604 5.37268 27 12 27C18.6273 27 24 21.5604 24 14.85C24 12.0408 21.2154 6.24691 17.3336 2.7ZM16.2905 20.664C15.1302 21.4634 13.6993 21.9375 12.1532 21.9375C8.28804 21.9375 5.14286 19.42 5.14286 15.3325C5.14286 13.2964 6.44518 11.5024 9.04232 8.4375C9.41357 8.85832 14.3368 15.0472 14.3368 15.0472L17.4777 11.5204C17.6995 11.8816 17.9014 12.2349 18.0814 12.5735C19.5466 15.3257 18.9284 18.8473 16.2905 20.664Z" fill="#E5E5E5"/>
</svg>
