<svg width="76" height="86" viewBox="0 0 76 86" fill="none" xmlns="http://www.w3.org/2000/svg">
<path d="M38.0279 42.9167C49.8142 42.9167 59.3665 33.3314 59.3665 21.5046C59.3665 9.67782 49.8142 0.0925903 38.0279 0.0925903C26.2416 0.0925903 16.6893 9.67782 16.6893 21.5046C16.6893 33.3314 26.2416 42.9167 38.0279 42.9167ZM52.9649 48.2697H50.1809C46.48 49.9759 42.3623 50.9462 38.0279 50.9462C33.6935 50.9462 29.5925 49.9759 25.8749 48.2697H23.0909C10.7211 48.2697 0.685303 58.34 0.685303 70.7523V77.7112C0.685303 82.1442 4.26952 85.7407 8.68729 85.7407H67.3685C71.7863 85.7407 75.3705 82.1442 75.3705 77.7112V70.7523C75.3705 58.34 65.3347 48.2697 52.9649 48.2697Z" fill="#454150"/>
</svg>
