<svg width="20" height="22" viewBox="0 0 20 22" fill="none" xmlns="http://www.w3.org/2000/svg">
<path d="M18.5714 8.75H12.1429V2C12.1429 1.17172 11.5031 0.5 10.7143 0.5H9.28571C8.49687 0.5 7.85714 1.17172 7.85714 2V8.75H1.42857C0.639732 8.75 0 9.42172 0 10.25V11.75C0 12.5783 0.639732 13.25 1.42857 13.25H7.85714V20C7.85714 20.8283 8.49687 21.5 9.28571 21.5H10.7143C11.5031 21.5 12.1429 20.8283 12.1429 20V13.25H18.5714C19.3603 13.25 20 12.5783 20 11.75V10.25C20 9.42172 19.3603 8.75 18.5714 8.75Z" fill="#F9F9F9"/>
</svg>
